<svg width="260" height="260" viewBox="0 0 260 260" fill="none" xmlns="http://www.w3.org/2000/svg">
<path d="M120.475 10.3477C125.926 5.56795 134.074 5.56795 139.525 10.3477C144.582 14.7814 151.736 15.9139 157.915 13.2598C164.576 10.3984 172.327 12.9172 176.034 19.1475C179.473 24.9266 185.927 28.2155 192.624 27.6006C199.843 26.9379 206.436 31.7272 208.036 38.7979C209.521 45.3569 214.643 50.4792 221.202 51.9639C228.273 53.5644 233.062 60.1568 232.399 67.376C231.785 74.0727 235.073 80.527 240.853 83.9658C247.083 87.673 249.602 95.4238 246.74 102.085C244.086 108.264 245.219 115.418 249.652 120.475C254.432 125.926 254.432 134.074 249.652 139.525C245.219 144.582 244.086 151.736 246.74 157.915C249.602 164.576 247.083 172.327 240.853 176.034C235.073 179.473 231.785 185.927 232.399 192.624C233.062 199.843 228.273 206.436 221.202 208.036C214.643 209.521 209.521 214.643 208.036 221.202C206.436 228.273 199.843 233.062 192.624 232.399C185.927 231.785 179.473 235.073 176.034 240.853C172.327 247.083 164.576 249.602 157.915 246.74C151.736 244.086 144.582 245.219 139.525 249.652C134.074 254.432 125.926 254.432 120.475 249.652C115.418 245.219 108.264 244.086 102.085 246.74C95.4238 249.602 87.673 247.083 83.9658 240.853C80.527 235.073 74.0727 231.785 67.376 232.399C60.1568 233.062 53.5644 228.273 51.9639 221.202C50.4792 214.643 45.3569 209.521 38.7979 208.036C31.7272 206.436 26.9379 199.843 27.6006 192.624C28.2155 185.927 24.9266 179.473 19.1475 176.034C12.9172 172.327 10.3984 164.576 13.2598 157.915C15.9139 151.736 14.7814 144.582 10.3477 139.525C5.56794 134.074 5.56794 125.926 10.3477 120.475C14.7814 115.418 15.9139 108.264 13.2598 102.085C10.3984 95.4238 12.9172 87.673 19.1475 83.9658C24.9266 80.527 28.2155 74.0727 27.6006 67.376C26.9379 60.1568 31.7272 53.5644 38.7979 51.9639C45.3569 50.4793 50.4792 45.3569 51.9639 38.7979C53.5644 31.7272 60.1568 26.9379 67.376 27.6006C74.0727 28.2155 80.527 24.9266 83.9658 19.1475C87.673 12.9172 95.4238 10.3984 102.085 13.2598C108.264 15.9139 115.418 14.7814 120.475 10.3477Z" fill="#1344B5" stroke="#FFF5EB" stroke-width="3"/>
<path d="M57.7288 105L65.4688 83.4H69.4288L62.3188 105H57.7288ZM73.5688 105L66.4888 83.4H70.6288L78.3688 105H73.5688ZM61.8088 96.63H73.9288V100.23H61.8088V96.63ZM80.5986 105V83.4H86.5686L96.1686 102.48L94.6986 102.84V83.4H99.1986V105H93.2286L83.6286 85.92L85.0986 85.56V105H80.5986ZM112.87 105.3C110.53 105.3 108.52 104.84 106.84 103.92C105.16 103 103.86 101.71 102.94 100.05C102.04 98.39 101.59 96.45 101.59 94.23C101.59 92.03 102.05 90.1 102.97 88.44C103.89 86.76 105.16 85.45 106.78 84.51C108.42 83.57 110.32 83.1 112.48 83.1C114.26 83.1 115.85 83.42 117.25 84.06C118.67 84.7 119.81 85.58 120.67 86.7C121.55 87.8 122.07 89.08 122.23 90.54H117.61C117.41 89.36 116.85 88.44 115.93 87.78C115.03 87.1 113.9 86.76 112.54 86.76C111.28 86.76 110.18 87.06 109.24 87.66C108.3 88.24 107.57 89.08 107.05 90.18C106.53 91.28 106.27 92.6 106.27 94.14C106.27 95.74 106.53 97.11 107.05 98.25C107.57 99.37 108.33 100.23 109.33 100.83C110.35 101.41 111.6 101.7 113.08 101.7C114.28 101.7 115.3 101.55 116.14 101.25C116.98 100.95 117.62 100.53 118.06 99.99L122.44 101.73C121.28 102.89 119.93 103.78 118.39 104.4C116.87 105 115.03 105.3 112.87 105.3ZM117.82 101.73V95.79L118.75 96.72H113.05V93.18H122.44V101.73H117.82ZM125.071 105V83.4H129.691V105H125.071ZM127.231 105V101.46H141.151V105H127.231ZM127.231 95.7V92.22H140.101V95.7H127.231ZM127.231 86.94V83.4H140.791V86.94H127.231ZM147.426 105V101.7H153.006C154.006 101.7 154.756 101.43 155.256 100.89C155.776 100.33 156.036 99.56 156.036 98.58C156.036 97.58 155.756 96.79 155.196 96.21C154.656 95.63 153.876 95.34 152.856 95.34H147.426V92.04H152.616C153.556 92.04 154.266 91.82 154.746 91.38C155.246 90.92 155.496 90.25 155.496 89.37C155.496 88.49 155.256 87.83 154.776 87.39C154.316 86.93 153.626 86.7 152.706 86.7H147.426V83.4H153.696C155.616 83.4 157.166 83.89 158.346 84.87C159.526 85.85 160.116 87.18 160.116 88.86C160.116 89.92 159.866 90.83 159.366 91.59C158.866 92.35 158.196 92.93 157.356 93.33C156.516 93.73 155.576 93.93 154.536 93.93L154.686 93.3C155.806 93.3 156.816 93.54 157.716 94.02C158.636 94.5 159.366 95.18 159.906 96.06C160.446 96.92 160.716 97.94 160.716 99.12C160.716 100.3 160.436 101.34 159.876 102.24C159.336 103.12 158.566 103.8 157.566 104.28C156.586 104.76 155.426 105 154.086 105H147.426ZM143.646 105V83.4H148.266V105H143.646ZM173.451 105.3C171.851 105.3 170.371 105.03 169.011 104.49C167.671 103.95 166.501 103.19 165.501 102.21C164.521 101.21 163.751 100.03 163.191 98.67C162.651 97.29 162.381 95.77 162.381 94.11C162.381 91.91 162.851 89.99 163.791 88.35C164.731 86.69 166.031 85.4 167.691 84.48C169.371 83.56 171.281 83.1 173.421 83.1C175.601 83.1 177.521 83.56 179.181 84.48C180.841 85.4 182.141 86.69 183.081 88.35C184.041 90.01 184.521 91.94 184.521 94.14C184.521 95.78 184.241 97.29 183.681 98.67C183.141 100.03 182.371 101.21 181.371 102.21C180.391 103.19 179.221 103.95 177.861 104.49C176.521 105.03 175.051 105.3 173.451 105.3ZM173.421 101.64C174.681 101.64 175.791 101.32 176.751 100.68C177.711 100.04 178.461 99.16 179.001 98.04C179.561 96.9 179.841 95.58 179.841 94.08C179.841 92.6 179.571 91.31 179.031 90.21C178.491 89.11 177.741 88.26 176.781 87.66C175.821 87.06 174.701 86.76 173.421 86.76C172.161 86.76 171.051 87.06 170.091 87.66C169.131 88.26 168.381 89.11 167.841 90.21C167.321 91.29 167.061 92.58 167.061 94.08C167.061 95.6 167.331 96.93 167.871 98.07C168.411 99.19 169.161 100.07 170.121 100.71C171.081 101.33 172.181 101.64 173.421 101.64ZM191.605 105V86.94H184.555V83.4H203.275V86.94H196.225V105H191.605ZM75.2227 141V119.4H79.8427V141H75.2227ZM82.8398 141V119.4H88.8098L98.4098 138.48L96.9398 138.84V119.4H101.44V141H95.4698L85.8698 121.92L87.3398 121.56V141H82.8398ZM109.395 141V137.4C111.375 135.78 113.025 134.39 114.345 133.23C115.685 132.05 116.745 131.01 117.525 130.11C118.325 129.21 118.895 128.39 119.235 127.65C119.575 126.91 119.745 126.17 119.745 125.43C119.745 124.55 119.505 123.87 119.025 123.39C118.565 122.89 117.915 122.64 117.075 122.64C116.195 122.64 115.465 122.91 114.885 123.45C114.305 123.99 113.945 124.73 113.805 125.67H109.185C109.405 123.63 110.235 122.03 111.675 120.87C113.115 119.69 114.975 119.1 117.255 119.1C119.575 119.1 121.385 119.7 122.685 120.9C123.985 122.08 124.635 123.73 124.635 125.85C124.635 126.85 124.465 127.81 124.125 128.73C123.805 129.65 123.265 130.6 122.505 131.58C121.745 132.56 120.705 133.64 119.385 134.82C118.085 135.98 116.455 137.31 114.495 138.81L113.385 137.46H125.055V141H109.395ZM132.762 141V119.4H139.962L145.962 140.22H143.352L149.352 119.4H156.582V141H152.022V120.69H152.802L146.952 141H142.182L136.392 120.87H137.142V141H132.762ZM159.568 141V119.4H164.188V141H159.568ZM167.186 141V119.4H173.156L182.756 138.48L181.286 138.84V119.4H185.786V141H179.816L170.216 121.92L171.686 121.56V141H167.186ZM32.7386 177L40.4786 155.4H44.4386L37.3286 177H32.7386ZM48.5786 177L41.4986 155.4H45.6386L53.3786 177H48.5786ZM36.8186 168.63H48.9386V172.23H36.8186V168.63ZM55.6084 177V155.4H61.5784L71.1784 174.48L69.7084 174.84V155.4H74.2084V177H68.2384L58.6384 157.92L60.1084 157.56V177H55.6084ZM77.2002 177V155.4H81.8202V177H77.2002ZM79.3602 168.63V165.09H91.7502V168.63H79.3602ZM79.3602 158.94V155.4H92.4402V158.94H79.3602ZM104.926 177.3C103.326 177.3 101.846 177.03 100.486 176.49C99.1461 175.95 97.9761 175.19 96.9761 174.21C95.9961 173.21 95.2261 172.03 94.6661 170.67C94.1261 169.29 93.8561 167.77 93.8561 166.11C93.8561 163.91 94.3261 161.99 95.2661 160.35C96.2061 158.69 97.5061 157.4 99.1661 156.48C100.846 155.56 102.756 155.1 104.896 155.1C107.076 155.1 108.996 155.56 110.656 156.48C112.316 157.4 113.616 158.69 114.556 160.35C115.516 162.01 115.996 163.94 115.996 166.14C115.996 167.78 115.716 169.29 115.156 170.67C114.616 172.03 113.846 173.21 112.846 174.21C111.866 175.19 110.696 175.95 109.336 176.49C107.996 177.03 106.526 177.3 104.926 177.3ZM104.896 173.64C106.156 173.64 107.266 173.32 108.226 172.68C109.186 172.04 109.936 171.16 110.476 170.04C111.036 168.9 111.316 167.58 111.316 166.08C111.316 164.6 111.046 163.31 110.506 162.21C109.966 161.11 109.216 160.26 108.256 159.66C107.296 159.06 106.176 158.76 104.896 158.76C103.636 158.76 102.526 159.06 101.566 159.66C100.606 160.26 99.8561 161.11 99.3161 162.21C98.7961 163.29 98.5361 164.58 98.5361 166.08C98.5361 167.6 98.8061 168.93 99.3461 170.07C99.8861 171.19 100.636 172.07 101.596 172.71C102.556 173.33 103.656 173.64 104.896 173.64ZM118.272 177V155.4H127.932C129.492 155.4 130.852 155.67 132.012 156.21C133.172 156.73 134.072 157.47 134.712 158.43C135.352 159.39 135.672 160.51 135.672 161.79C135.672 163.05 135.352 164.16 134.712 165.12C134.072 166.06 133.172 166.8 132.012 167.34C130.852 167.86 129.492 168.12 127.932 168.12H121.932V164.73H127.812C128.912 164.73 129.752 164.48 130.332 163.98C130.932 163.46 131.232 162.74 131.232 161.82C131.232 160.88 130.942 160.17 130.362 159.69C129.782 159.19 128.932 158.94 127.812 158.94H122.892V177H118.272ZM130.452 177L121.782 165.78H126.672L136.692 177H130.452ZM141.251 177V173.4H146.711C148.271 173.4 149.591 173.09 150.671 172.47C151.771 171.83 152.601 170.96 153.161 169.86C153.741 168.76 154.031 167.5 154.031 166.08C154.031 164.68 153.751 163.45 153.191 162.39C152.631 161.33 151.801 160.5 150.701 159.9C149.621 159.3 148.291 159 146.711 159H141.341V155.4H146.711C149.131 155.4 151.241 155.84 153.041 156.72C154.841 157.58 156.231 158.82 157.211 160.44C158.211 162.04 158.711 163.94 158.711 166.14C158.711 168.34 158.211 170.26 157.211 171.9C156.211 173.52 154.811 174.78 153.011 175.68C151.231 176.56 149.141 177 146.741 177H141.251ZM138.431 177V155.4H143.051V177H138.431ZM161.106 177V155.4H165.726V177H161.106ZM163.266 177V173.46H177.186V177H163.266ZM163.266 167.7V164.22H176.136V167.7H163.266ZM163.266 158.94V155.4H176.826V158.94H163.266ZM179.561 177V155.4H189.221C190.781 155.4 192.141 155.67 193.301 156.21C194.461 156.73 195.361 157.47 196.001 158.43C196.641 159.39 196.961 160.51 196.961 161.79C196.961 163.05 196.641 164.16 196.001 165.12C195.361 166.06 194.461 166.8 193.301 167.34C192.141 167.86 190.781 168.12 189.221 168.12H183.221V164.73H189.101C190.201 164.73 191.041 164.48 191.621 163.98C192.221 163.46 192.521 162.74 192.521 161.82C192.521 160.88 192.231 160.17 191.651 159.69C191.071 159.19 190.221 158.94 189.101 158.94H184.181V177H179.561ZM191.741 177L183.071 165.78H187.961L197.981 177H191.741ZM199.72 177V155.4H205.69L215.29 174.48L213.82 174.84V155.4H218.32V177H212.35L202.75 157.92L204.22 157.56V177H199.72ZM222.572 168.78L221.912 154.8H226.892L226.232 168.78H222.572ZM221.942 177V172.05H226.892V177H221.942Z" fill="#FFF5EB"/>
</svg>
