<svg width="117" height="57" viewBox="0 0 117 57" fill="none" xmlns="http://www.w3.org/2000/svg">
<g clip-path="url(#clip0_83_1464)">
<path d="M30.7473 10.1406H42.5944V12.3416H37.9361V24.7143H35.3746V12.3416H30.7369V10.1406H30.7473ZM42.0883 14.162H44.278V16.1984H44.3193C44.3916 15.9104 44.5259 15.6327 44.7221 15.3653C44.9184 15.0979 45.1559 14.8408 45.4348 14.6248C45.7137 14.3986 46.0236 14.2237 46.3644 14.0797C46.7053 13.946 47.0564 13.874 47.4076 13.874C47.6762 13.874 47.8724 13.8843 47.9757 13.8946C48.079 13.9049 48.1823 13.9255 48.2959 13.9357V16.1778C48.1306 16.147 47.9654 16.1264 47.7898 16.1058C47.6142 16.0853 47.4489 16.075 47.2837 16.075C46.8912 16.075 46.5193 16.1573 46.1682 16.3115C45.817 16.4658 45.5175 16.7024 45.2592 17.0006C45.001 17.3092 44.7944 17.6794 44.6395 18.132C44.4846 18.5845 44.4123 19.0987 44.4123 19.685V24.704H42.078V14.162H42.0883ZM59.0275 24.7143H56.7345V23.2435H56.6932C56.404 23.7784 55.9805 24.2 55.4124 24.5189C54.8444 24.8377 54.2659 25.0023 53.6772 25.0023C52.2828 25.0023 51.2706 24.6629 50.6509 23.9738C50.0311 23.2847 49.7213 22.2459 49.7213 20.8575V14.162H52.0556V20.6312C52.0556 21.5568 52.2312 22.2151 52.5927 22.5956C52.9439 22.9761 53.45 23.1715 54.0904 23.1715C54.5861 23.1715 54.989 23.0996 55.3195 22.9453C55.65 22.791 55.9186 22.5956 56.1148 22.3385C56.3214 22.0916 56.466 21.7831 56.5589 21.4334C56.6519 21.0837 56.6932 20.7032 56.6932 20.2918V14.1723H59.0275V24.7143ZM63.0041 21.3306C63.0764 22.0094 63.3346 22.4825 63.7788 22.7602C64.2332 23.0276 64.7703 23.1715 65.4004 23.1715C65.6173 23.1715 65.8652 23.151 66.1441 23.1201C66.4229 23.0893 66.6915 23.0173 66.9291 22.9247C67.1769 22.8321 67.3732 22.6882 67.5385 22.503C67.6934 22.3179 67.7657 22.0814 67.7554 21.7831C67.745 21.4848 67.6314 21.238 67.4248 21.0529C67.2183 20.8575 66.96 20.7135 66.6399 20.59C66.3197 20.4769 65.9581 20.3741 65.545 20.2918C65.1318 20.2095 64.7187 20.1169 64.2952 20.0244C63.8614 19.9318 63.4379 19.8084 63.0351 19.6747C62.6323 19.541 62.2708 19.3559 61.9506 19.1193C61.6304 18.893 61.3722 18.5948 61.1862 18.2348C60.99 17.8748 60.897 17.4326 60.897 16.8978C60.897 16.3218 61.0416 15.8487 61.3205 15.4579C61.5994 15.0671 61.9609 14.7585 62.3844 14.522C62.8182 14.2854 63.2933 14.1209 63.8201 14.018C64.3469 13.9255 64.853 13.874 65.3281 13.874C65.8755 13.874 66.4023 13.9357 66.8981 14.0489C67.3939 14.162 67.8483 14.3471 68.2511 14.6145C68.654 14.8717 68.9845 15.2111 69.253 15.6225C69.5216 16.0339 69.6868 16.5378 69.7591 17.124H67.3215C67.2079 16.5687 66.96 16.1881 66.5572 16.003C66.1544 15.8076 65.6896 15.715 65.1732 15.715C65.0079 15.715 64.8116 15.7253 64.5844 15.7562C64.3572 15.787 64.1506 15.8384 63.944 15.9104C63.7478 15.9824 63.5825 16.0956 63.4379 16.2395C63.3036 16.3835 63.2313 16.5687 63.2313 16.8052C63.2313 17.0932 63.3346 17.3195 63.5309 17.4943C63.7271 17.6691 63.9853 17.8131 64.3055 17.9366C64.6257 18.0497 64.9872 18.1525 65.4004 18.2348C65.8135 18.3171 66.237 18.4097 66.6708 18.5022C67.0943 18.5948 67.5075 18.7182 67.9206 18.8519C68.3338 18.9856 68.6953 19.1707 69.0155 19.4073C69.3357 19.6438 69.5939 19.9318 69.7901 20.2815C69.9864 20.6312 70.0897 21.0734 70.0897 21.5877C70.0897 22.2151 69.9451 22.7396 69.6559 23.1818C69.3667 23.6138 68.9948 23.9738 68.5403 24.2412C68.0859 24.5086 67.5694 24.7143 67.0117 24.8377C66.4539 24.9611 65.8962 25.0228 65.3487 25.0228C64.6774 25.0228 64.0576 24.9508 63.4896 24.7966C62.9215 24.6423 62.4257 24.416 62.0125 24.1178C61.5994 23.8092 61.2689 23.4287 61.0313 22.9761C60.7937 22.5236 60.6698 21.9785 60.6491 21.3511H63.0041V21.3306ZM70.7094 14.162H72.4756V10.9943H74.8099V14.162H76.917V15.9001H74.8099V21.5363C74.8099 21.7831 74.8203 21.9888 74.8409 22.1739C74.8616 22.3488 74.9132 22.503 74.9855 22.6265C75.0578 22.7499 75.1714 22.8424 75.3264 22.9041C75.4813 22.9659 75.6775 22.9967 75.9461 22.9967C76.1114 22.9967 76.2766 22.9967 76.4419 22.9864C76.6071 22.9761 76.7724 22.9556 76.9377 22.9144V24.7143C76.6794 24.7451 76.4212 24.7657 76.1837 24.7966C75.9358 24.8274 75.6879 24.8377 75.4297 24.8377C74.8099 24.8377 74.3141 24.776 73.9423 24.6629C73.5705 24.5497 73.2709 24.3749 73.0644 24.1486C72.8475 23.9223 72.7132 23.6447 72.6306 23.3053C72.5583 22.9659 72.5066 22.575 72.4963 22.1431V15.9207H70.7301V14.162H70.7094ZM78.5696 14.162H80.78V15.5916H80.8213C81.1518 14.9745 81.6063 14.5425 82.195 14.2751C82.7838 14.0077 83.4138 13.874 84.1058 13.874C84.9425 13.874 85.6655 14.018 86.2852 14.3163C86.905 14.6043 87.4214 15.0054 87.8346 15.5196C88.2477 16.0339 88.5472 16.6304 88.7538 17.3092C88.9604 17.988 89.0637 18.7182 89.0637 19.4896C89.0637 20.1992 88.9707 20.8883 88.7848 21.5465C88.5989 22.2151 88.32 22.8013 87.9482 23.3155C87.5763 23.8298 87.1012 24.2309 86.5228 24.5394C85.9444 24.848 85.273 25.0023 84.488 25.0023C84.1472 25.0023 83.8063 24.9714 83.4655 24.9097C83.1246 24.848 82.7941 24.7451 82.4842 24.6114C82.1744 24.4777 81.8748 24.3029 81.6166 24.0869C81.3481 23.8709 81.1312 23.6241 80.9452 23.3464H80.9039V28.6122H78.5696V14.162ZM86.7294 19.4484C86.7294 18.9753 86.6674 18.5125 86.5434 18.06C86.4195 17.6074 86.2336 17.2166 85.9857 16.8669C85.7378 16.5172 85.4279 16.2395 85.0664 16.0339C84.6946 15.8282 84.2711 15.715 83.796 15.715C82.8147 15.715 82.0711 16.0544 81.5753 16.7332C81.0795 17.412 80.8316 18.3171 80.8316 19.4484C80.8316 19.9832 80.8936 20.4769 81.0279 20.9294C81.1621 21.382 81.3481 21.7728 81.6166 22.1019C81.8748 22.431 82.1847 22.6882 82.5462 22.8733C82.9077 23.0687 83.3312 23.1613 83.8063 23.1613C84.3434 23.1613 84.7876 23.0481 85.1594 22.8321C85.5312 22.6162 85.8308 22.3282 86.0683 21.9888C86.3059 21.6391 86.4815 21.2483 86.5848 20.806C86.6777 20.3638 86.7294 19.9112 86.7294 19.4484ZM90.8506 10.1406H93.1849V12.3416H90.8506V10.1406ZM90.8506 14.162H93.1849V24.7143H90.8506V14.162ZM95.2713 10.1406H97.6056V24.7143H95.2713V10.1406ZM104.763 25.0023C103.916 25.0023 103.162 24.8583 102.501 24.5806C101.84 24.3029 101.283 23.9121 100.818 23.4287C100.363 22.935 100.012 22.3488 99.7746 21.67C99.5371 20.9912 99.4131 20.2404 99.4131 19.4279C99.4131 18.6256 99.5371 17.8851 99.7746 17.2063C100.012 16.5275 100.363 15.9413 100.818 15.4476C101.272 14.9539 101.84 14.5734 102.501 14.2957C103.162 14.018 103.916 13.874 104.763 13.874C105.61 13.874 106.364 14.018 107.025 14.2957C107.687 14.5734 108.244 14.9642 108.709 15.4476C109.164 15.9413 109.515 16.5275 109.752 17.2063C109.99 17.8851 110.114 18.6256 110.114 19.4279C110.114 20.2404 109.99 20.9912 109.752 21.67C109.515 22.3488 109.164 22.935 108.709 23.4287C108.255 23.9223 107.687 24.3029 107.025 24.5806C106.364 24.8583 105.61 25.0023 104.763 25.0023ZM104.763 23.1613C105.28 23.1613 105.734 23.0481 106.117 22.8321C106.499 22.6162 106.809 22.3282 107.056 21.9785C107.304 21.6288 107.48 21.2277 107.604 20.7855C107.717 20.3432 107.779 19.8907 107.779 19.4279C107.779 18.9753 107.717 18.5331 107.604 18.0805C107.49 17.628 107.304 17.2372 107.056 16.8875C106.809 16.5378 106.499 16.2601 106.117 16.0441C105.734 15.8282 105.28 15.715 104.763 15.715C104.247 15.715 103.793 15.8282 103.41 16.0441C103.028 16.2601 102.718 16.5481 102.47 16.8875C102.223 17.2372 102.047 17.628 101.923 18.0805C101.809 18.5331 101.747 18.9753 101.747 19.4279C101.747 19.8907 101.809 20.3432 101.923 20.7855C102.037 21.2277 102.223 21.6288 102.47 21.9785C102.718 22.3282 103.028 22.6162 103.41 22.8321C103.793 23.0584 104.247 23.1613 104.763 23.1613ZM110.795 14.162H112.562V10.9943H114.896V14.162H117.003V15.9001H114.896V21.5363C114.896 21.7831 114.906 21.9888 114.927 22.1739C114.948 22.3488 114.999 22.503 115.072 22.6265C115.144 22.7499 115.258 22.8424 115.412 22.9041C115.567 22.9659 115.764 22.9967 116.032 22.9967C116.197 22.9967 116.363 22.9967 116.528 22.9864C116.693 22.9761 116.858 22.9556 117.024 22.9144V24.7143C116.766 24.7451 116.507 24.7657 116.27 24.7966C116.022 24.8274 115.774 24.8377 115.516 24.8377C114.896 24.8377 114.4 24.776 114.028 24.6629C113.657 24.5497 113.357 24.3749 113.15 24.1486C112.934 23.9223 112.799 23.6447 112.717 23.3053C112.644 22.9659 112.593 22.575 112.582 22.1431V15.9207H110.816V14.162H110.795Z" fill="#191919"/>
<path d="M28.0207 10.1409H17.3201L14.0148 0L10.6993 10.1409L-0.00134277 10.1306L8.66452 16.4044L5.34898 26.535L14.0148 20.2715L22.6704 26.535L19.3652 16.4044L28.0207 10.1409Z" fill="#00B67A"/>
<path d="M20.1073 18.6968L19.3636 16.4033L14.0133 20.2704L20.1073 18.6968Z" fill="#005128"/>
</g>
<path d="M9.27982 51.0254V47.7032H3.72126V45.7638L8.81583 38.0338H11.21V45.7731H12.3978V47.7032H11.21V51.0254H9.27982ZM5.96695 45.7638L9.27982 45.7731L9.26126 40.6971L5.96695 45.7638ZM15.2631 51.2667C14.9785 51.2667 14.7372 51.1677 14.5392 50.9697C14.3475 50.7717 14.2516 50.5305 14.2516 50.2459C14.2516 49.9675 14.3475 49.7293 14.5392 49.5314C14.7372 49.3334 14.9785 49.2344 15.2631 49.2344C15.5476 49.2344 15.7889 49.3334 15.9869 49.5314C16.1849 49.7293 16.2838 49.9675 16.2838 50.2459C16.2838 50.5305 16.1849 50.7717 15.9869 50.9697C15.7889 51.1677 15.5476 51.2667 15.2631 51.2667ZM18.5288 51.0254L24.904 39.964H17.7771V38.0338H27.1404V39.964L20.7467 51.0254H18.5288Z" fill="black"/>
<rect width="13.0296" height="13.0296" transform="translate(34.1654 38.5107)" fill="#00B878"/>
<path d="M45.6034 43.9337H41.8451L40.6843 40.3721L39.5198 43.9337L35.7616 43.9301L38.8052 46.1335L37.6407 49.6916L40.6843 47.4917L43.7243 49.6916L42.5634 46.1335L45.6034 43.9337Z" fill="#F5F5F5"/>
<path d="M42.8257 46.9374L42.5645 46.1318L40.6854 47.49L42.8257 46.9374Z" fill="#00B87C"/>
<rect width="13.0296" height="13.0296" transform="translate(50.8732 38.5107)" fill="#00B878"/>
<path d="M62.3091 43.9337H58.5508L57.39 40.3721L56.2255 43.9337L52.4673 43.9301L55.5109 46.1335L54.3464 49.6916L57.39 47.4917L60.4299 49.6916L59.2691 46.1335L62.3091 43.9337Z" fill="#F5F5F5"/>
<path d="M59.5314 46.9374L59.2702 46.1318L57.3911 47.49L59.5314 46.9374Z" fill="#00B87C"/>
<rect width="13.0296" height="13.0296" transform="translate(67.5809 38.5107)" fill="#00B878"/>
<path d="M79.0166 43.9337H75.2583L74.0975 40.3721L72.933 43.9337L69.1748 43.9301L72.2184 46.1335L71.0539 49.6916L74.0975 47.4917L77.1375 49.6916L75.9766 46.1335L79.0166 43.9337Z" fill="#F5F5F5"/>
<path d="M76.2387 46.9374L75.9775 46.1318L74.0984 47.49L76.2387 46.9374Z" fill="#00B87C"/>
<rect width="13.0296" height="13.0296" transform="translate(84.2887 38.5107)" fill="#00B878"/>
<path d="M95.7285 43.9337H91.9703L90.8094 40.3721L89.6449 43.9337L85.8867 43.9301L88.9303 46.1335L87.7658 49.6916L90.8094 47.4917L93.8494 49.6916L92.6885 46.1335L95.7285 43.9337Z" fill="#F5F5F5"/>
<path d="M92.9489 46.9374L92.6877 46.1318L90.8086 47.49L92.9489 46.9374Z" fill="#00B87C"/>
<g clip-path="url(#clip1_83_1464)">
<rect width="13.0296" height="13.0296" transform="translate(100.996 38.5107)" fill="#00B878"/>
<rect x="107.512" y="38.5107" width="6.51479" height="13.0296" fill="#D9D9D9"/>
<path d="M112.434 43.9337H108.676L107.515 40.3721L106.35 43.9337L102.592 43.9301L105.636 46.1335L104.471 49.6916L107.515 47.4917L110.555 49.6916L109.394 46.1335L112.434 43.9337Z" fill="#F5F5F5"/>
<path d="M109.658 46.9374L109.397 46.1318L107.518 47.49L109.658 46.9374Z" fill="#D9D9D9"/>
</g>
<defs>
<clipPath id="clip0_83_1464">
<rect width="117.005" height="28.6125" fill="white"/>
</clipPath>
<clipPath id="clip1_83_1464">
<rect width="13.0296" height="13.0296" fill="white" transform="translate(100.996 38.5107)"/>
</clipPath>
</defs>
</svg>
