<svg width="40" height="40" viewBox="0 0 40 40" fill="none" xmlns="http://www.w3.org/2000/svg">
<rect width="40" height="40" rx="20" fill="#E4487B"/>
<path d="M24.8291 18.2898H22.7041C22.6435 17.9413 22.5318 17.6326 22.3689 17.3636C22.206 17.0909 22.0034 16.8598 21.761 16.6705C21.5185 16.4811 21.242 16.339 20.9314 16.2443C20.6246 16.1458 20.2932 16.0966 19.9371 16.0966C19.3045 16.0966 18.7439 16.2557 18.2553 16.5739C17.7666 16.8883 17.3841 17.3504 17.1076 17.9602C16.831 18.5663 16.6928 19.3068 16.6928 20.1818C16.6928 21.072 16.831 21.822 17.1076 22.4318C17.3879 23.0379 17.7704 23.4962 18.2553 23.8068C18.7439 24.1136 19.3026 24.267 19.9314 24.267C20.2799 24.267 20.6057 24.2216 20.9087 24.1307C21.2155 24.036 21.4901 23.8977 21.7326 23.7159C21.9788 23.5341 22.1852 23.3106 22.3519 23.0455C22.5223 22.7803 22.6398 22.4773 22.7041 22.1364L24.8291 22.1477C24.7496 22.7008 24.5773 23.2197 24.3121 23.7045C24.0507 24.1894 23.7079 24.6174 23.2837 24.9886C22.8594 25.3561 22.3632 25.6439 21.7951 25.8523C21.2269 26.0568 20.5962 26.1591 19.903 26.1591C18.8803 26.1591 17.9674 25.9223 17.1644 25.4489C16.3613 24.9754 15.7288 24.2917 15.2666 23.3977C14.8045 22.5038 14.5735 21.4318 14.5735 20.1818C14.5735 18.928 14.8064 17.8561 15.2723 16.9659C15.7382 16.072 16.3727 15.3883 17.1757 14.9148C17.9788 14.4413 18.8879 14.2045 19.903 14.2045C20.5507 14.2045 21.153 14.2955 21.7098 14.4773C22.2666 14.6591 22.7629 14.9261 23.1985 15.2784C23.6341 15.6269 23.992 16.0549 24.2723 16.5625C24.5564 17.0663 24.742 17.642 24.8291 18.2898Z" fill="white"/>
</svg>
