<svg width="40" height="40" viewBox="0 0 40 40" fill="none" xmlns="http://www.w3.org/2000/svg">
<rect width="40" height="40" rx="20" fill="#5D6DBD"/>
<path d="M25.4961 18.2898H23.3711C23.3105 17.9413 23.1988 17.6326 23.0359 17.3636C22.873 17.0909 22.6704 16.8598 22.428 16.6705C22.1855 16.4811 21.909 16.339 21.5984 16.2443C21.2916 16.1458 20.9602 16.0966 20.6041 16.0966C19.9715 16.0966 19.4109 16.2557 18.9223 16.5739C18.4336 16.8883 18.0511 17.3504 17.7745 17.9602C17.498 18.5663 17.3598 19.3068 17.3598 20.1818C17.3598 21.072 17.498 21.822 17.7745 22.4318C18.0549 23.0379 18.4374 23.4962 18.9223 23.8068C19.4109 24.1136 19.9696 24.267 20.5984 24.267C20.9469 24.267 21.2727 24.2216 21.5757 24.1307C21.8825 24.036 22.1571 23.8977 22.3995 23.7159C22.6458 23.5341 22.8522 23.3106 23.0189 23.0455C23.1893 22.7803 23.3067 22.4773 23.3711 22.1364L25.4961 22.1477C25.4166 22.7008 25.2442 23.2197 24.9791 23.7045C24.7177 24.1894 24.3749 24.6174 23.9507 24.9886C23.5264 25.3561 23.0302 25.6439 22.462 25.8523C21.8939 26.0568 21.2632 26.1591 20.57 26.1591C19.5473 26.1591 18.6344 25.9223 17.8314 25.4489C17.0283 24.9754 16.3958 24.2917 15.9336 23.3977C15.4715 22.5038 15.2405 21.4318 15.2405 20.1818C15.2405 18.928 15.4734 17.8561 15.9393 16.9659C16.4052 16.072 17.0397 15.3883 17.8427 14.9148C18.6458 14.4413 19.5549 14.2045 20.57 14.2045C21.2177 14.2045 21.82 14.2955 22.3768 14.4773C22.9336 14.6591 23.4299 14.9261 23.8655 15.2784C24.3011 15.6269 24.659 16.0549 24.9393 16.5625C25.2234 17.0663 25.409 17.642 25.4961 18.2898Z" fill="white"/>
</svg>
